<?xml version="1.0" encoding="UTF-8" standalone="no"?>
<!-- Created with Inkscape (http://www.inkscape.org/) -->

<svg
   width="50mm"
   height="50mm"
   viewBox="0 0 50 50"
   version="1.1"
   id="svg1"
   inkscape:version="1.4 (86a8ad7, 2024-10-11)"
   sodipodi:docname="a.svg"
   xmlns:inkscape="http://www.inkscape.org/namespaces/inkscape"
   xmlns:sodipodi="http://sodipodi.sourceforge.net/DTD/sodipodi-0.dtd"
   xmlns="http://www.w3.org/2000/svg"
   xmlns:svg="http://www.w3.org/2000/svg">
  <sodipodi:namedview
     id="namedview1"
     pagecolor="#ffffff"
     bordercolor="#000000"
     borderopacity="0.25"
     inkscape:showpageshadow="2"
     inkscape:pageopacity="0.0"
     inkscape:pagecheckerboard="0"
     inkscape:deskcolor="#d1d1d1"
     inkscape:document-units="mm"
     inkscape:zoom="0.68862935"
     inkscape:cx="396.43968"
     inkscape:cy="96.56864"
     inkscape:window-width="1920"
     inkscape:window-height="991"
     inkscape:window-x="-9"
     inkscape:window-y="-9"
     inkscape:window-maximized="1"
     inkscape:current-layer="layer1" />
  <defs
     id="defs1" />
  <g
     inkscape:label="Katman 1"
     inkscape:groupmode="layer"
     id="layer1">
    <path
       style="fill:#000000;stroke-width:0.264999"
       id="path3"
       d="m 13.355042,43.786329 c 0.900934,-4.469431 2.155885,-8.859245 3.410292,-13.23962 1.087689,-3.682677 2.17575,-7.384427 3.572338,-10.965764 0.643566,-1.650329 1.069175,-2.487879 1.807981,-4.05334 0.994157,-2.011398 1.932463,-3.781993 3.872819,-4.98118 0.678568,-0.31595 1.63392,-1.0432659 2.442767,-0.7497113 0.193577,0.070255 0.353976,0.2105523 0.530964,0.3158283 -0.905114,-0.4962656 -1.762141,-1.0926584 -2.715338,-1.4887966 -0.281402,-0.1169476 0.456524,0.4059513 0.65861,0.6340417 0.241736,0.2728428 0.462248,0.5648222 0.66935,0.8648029 0.858653,1.243731 1.473203,2.593247 2.083219,3.968801 1.478084,3.642197 2.227003,7.522983 2.876769,11.383499 0.545674,3.222382 0.582766,6.492092 0.736949,9.746993 0.108442,1.930562 0.190984,3.862303 0.252582,5.794875 0,0 3.475718,1.754286 3.475718,1.754286 v 0 c -0.08648,-1.945749 -0.214961,-3.889275 -0.320435,-5.83405 -0.170669,-3.274327 -0.198358,-6.566569 -0.758118,-9.807355 -0.658188,-3.874952 -1.409602,-7.772324 -2.815984,-11.454715 -0.580131,-1.388907 -1.174404,-2.742975 -1.981677,-4.01909 -0.148756,-0.235147 -0.947012,-1.40449 -1.243152,-1.602319 -1.287884,-0.8603375 -2.661992,-1.584014 -3.992988,-2.3760209 -0.212545,-0.06651 -0.416979,-0.1693553 -0.637633,-0.1995286 -0.90823,-0.1241962 -1.807434,0.5656236 -2.556751,0.9533194 -2.006415,1.3678945 -2.813875,3.0848341 -3.839897,5.2525941 -0.706834,1.571312 -1.138422,2.47177 -1.760584,4.118183 -1.362333,3.605107 -2.448051,7.31469 -3.545101,11.005827 -1.274104,4.366736 -2.526503,8.73974 -3.6959084,13.135882 z" />
    <path
       style="fill:#000000;stroke-width:0.264999"
       id="path4"
       d="m 20.089492,28.177127 c 2.368706,0.266457 4.747477,0.441357 7.128915,0.538856 1.821476,0.06336 3.643982,0.0919 5.466437,0.106436 0.78141,0.0049 1.562838,0.0061 2.344253,0.0029 0,0 -3.192576,-2.318621 -3.192576,-2.318621 v 0 c -0.77515,-2.11e-4 -1.550273,0.0058 -2.325415,0.0084 -1.79991,0.0035 -3.600209,-0.0058 -5.398987,-0.07668 -2.394829,-0.110627 -4.799531,-0.240112 -7.166002,-0.641257 z" />
  </g>
</svg>
