<?xml version="1.0" encoding="UTF-8" standalone="no"?>
<!-- Created with Inkscape (http://www.inkscape.org/) -->

<svg
   width="50mm"
   height="50mm"
   viewBox="0 0 50 50"
   version="1.1"
   id="svg1"
   inkscape:version="1.4 (86a8ad7, 2024-10-11)"
   sodipodi:docname="d.svg"
   xmlns:inkscape="http://www.inkscape.org/namespaces/inkscape"
   xmlns:sodipodi="http://sodipodi.sourceforge.net/DTD/sodipodi-0.dtd"
   xmlns="http://www.w3.org/2000/svg"
   xmlns:svg="http://www.w3.org/2000/svg">
  <sodipodi:namedview
     id="namedview1"
     pagecolor="#ffffff"
     bordercolor="#000000"
     borderopacity="0.25"
     inkscape:showpageshadow="2"
     inkscape:pageopacity="0.0"
     inkscape:pagecheckerboard="0"
     inkscape:deskcolor="#d1d1d1"
     inkscape:document-units="mm"
     inkscape:zoom="0.68862935"
     inkscape:cx="396.43968"
     inkscape:cy="96.56864"
     inkscape:window-width="1920"
     inkscape:window-height="991"
     inkscape:window-x="-9"
     inkscape:window-y="-9"
     inkscape:window-maximized="1"
     inkscape:current-layer="layer1" />
  <defs
     id="defs1" />
  <g
     inkscape:label="Katman 1"
     inkscape:groupmode="layer"
     id="layer1">
    <path
       style="fill:#000000;stroke-width:0.264999"
       id="path1"
       d="m 12.079828,7.3431685 c -0.05628,3.8746345 -0.147392,7.7488675 -0.225841,11.6231645 -0.133495,2.979042 -0.201182,5.966111 -0.754095,8.902597 -0.271178,1.754912 -0.825934,3.440221 -1.2347152,5.161716 -0.2671432,1.257015 -0.5580393,2.506544 -0.7343439,3.780481 -0.1134766,0.996378 -0.1259732,1.999565 -0.133192,3.001073 0.1352634,0.528283 -0.1719864,1.141661 -0.034063,1.662062 0.030726,0.115933 0.064371,0.260761 0.1703393,0.316929 1.2877838,0.682596 2.6353848,1.245806 3.9530778,1.86871 3.132989,-0.76118 6.230356,-1.647331 9.297874,-2.638671 1.937032,-0.68597 3.823479,-1.552813 5.482367,-2.781197 0.928666,-0.687663 1.266216,-1.077386 2.085255,-1.885048 2.110994,-2.447996 2.978592,-5.135874 3.555161,-8.253682 C 34.02033,25.25916 33.820017,22.403524 33.204107,19.601974 32.741655,17.761846 31.770341,16.186822 30.557644,14.756467 28.549012,12.533945 26.029689,11.312694 23.430634,9.8205384 22.007842,9.040256 20.461739,8.5477407 18.94017,8.0074597 17.722832,7.5826235 16.523399,7.1164748 15.30875,6.6861821 14.268608,6.3058806 13.176744,6.2146166 12.081167,6.1620344 c 0,0 3.168101,2.3295887 3.168101,2.3295887 v 0 c 1.075843,0.07183 2.141026,0.2189816 3.153198,0.6129962 1.200516,0.4562541 2.416984,0.859636 3.621246,1.3060167 1.517829,0.524867 3.034585,1.068418 4.441635,1.854724 -5.144248,-3.0412694 -2.321174,-1.440886 -1.281422,-0.639109 0.635534,0.490074 1.166855,1.097769 1.779201,1.614155 1.243947,1.364624 2.256004,2.895463 2.767076,4.690779 0.680654,2.750552 0.905039,5.570935 0.418254,8.380837 -0.556377,3.042599 -1.379758,5.661995 -3.460063,8.038345 -0.828889,0.808342 -1.107047,1.13666 -2.044701,1.822897 -1.633025,1.195152 -3.479432,2.046835 -5.375638,2.729492 -3.06692,0.99759 -6.17982,1.924608 -9.3672013,2.44334 0.9775513,0.623649 1.9942593,1.189797 2.9326533,1.870942 0.0876,0.06358 -0.234857,0.08411 -0.323941,0.02262 -0.103007,-0.0711 0.04177,-1.420357 -0.0023,-1.636657 0.0044,-0.98734 0.0099,-1.976733 0.10726,-2.960213 0.15141,-1.268418 0.432274,-2.509573 0.686914,-3.760005 0.404428,-1.733055 0.95058,-3.431524 1.202837,-5.200036 0.541333,-2.976046 0.590426,-5.996884 0.676243,-9.01445 0.05116,-3.848452 0.110994,-7.700576 0.403329,-11.5397606 z" />
  </g>
</svg>
