<?xml version="1.0" encoding="UTF-8" standalone="no"?>
<!-- Created with Inkscape (http://www.inkscape.org/) -->

<svg
   width="50mm"
   height="50mm"
   viewBox="0 0 50 50"
   version="1.1"
   id="svg1"
   inkscape:version="1.4 (86a8ad7, 2024-10-11)"
   sodipodi:docname="e.svg"
   xmlns:inkscape="http://www.inkscape.org/namespaces/inkscape"
   xmlns:sodipodi="http://sodipodi.sourceforge.net/DTD/sodipodi-0.dtd"
   xmlns="http://www.w3.org/2000/svg"
   xmlns:svg="http://www.w3.org/2000/svg">
  <sodipodi:namedview
     id="namedview1"
     pagecolor="#ffffff"
     bordercolor="#000000"
     borderopacity="0.25"
     inkscape:showpageshadow="2"
     inkscape:pageopacity="0.0"
     inkscape:pagecheckerboard="0"
     inkscape:deskcolor="#d1d1d1"
     inkscape:document-units="mm"
     inkscape:zoom="0.68862935"
     inkscape:cx="396.43968"
     inkscape:cy="561.25984"
     inkscape:window-width="1920"
     inkscape:window-height="991"
     inkscape:window-x="-9"
     inkscape:window-y="-9"
     inkscape:window-maximized="1"
     inkscape:current-layer="layer1" />
  <defs
     id="defs1" />
  <g
     inkscape:label="Katman 1"
     inkscape:groupmode="layer"
     id="layer1">
    <path
       style="fill:#000000;stroke-width:0.264999"
       id="path1"
       d="m 30.263036,8.4447165 c -2.503247,0.055554 -4.993391,0.3841662 -7.478102,0.6741998 -2.390479,0.2881583 -4.795046,0.4132128 -7.200583,0.4756484 -0.975394,0.010753 -1.947295,0.012549 -2.920676,0.080376 -0.322639,0.022482 -1.199338,0.072371 -1.540482,0.185089 -0.20414,0.067451 -0.38006,0.2011113 -0.57009,0.3016673 -1.1134331,1.028598 -1.1029035,2.58353 -1.1622739,3.994372 -0.065373,2.581001 0.4537729,5.13536 0.8127009,7.682667 0.557953,3.395768 0.971588,6.81053 1.26096,10.239003 0.156529,1.632172 0.406706,3.253126 0.541827,4.887394 0.106798,1.106175 0.03171,2.219801 0.11136,3.326304 2.580439,3.468696 7.181052,2.889843 10.877778,2.722626 2.670493,-0.171794 5.343343,-0.285001 8.018545,-0.34426 1.614469,-0.02989 3.229269,-0.03133 4.84396,-0.03267 0,0 -3.151825,-2.288701 -3.151825,-2.288701 v 0 c -1.605211,0.0069 -3.210385,0.02254 -4.815134,0.06424 -2.663753,0.07367 -5.325422,0.198263 -7.984213,0.378389 -1.639634,0.07261 -3.276926,0.153868 -4.915856,0.0033 -0.458476,-0.04213 -1.651293,-0.555363 -1.367725,-0.192643 0.693882,0.887564 3.781535,2.219434 2.027182,1.444308 -0.149836,-1.099048 -0.0215,-2.219651 -0.122287,-3.324588 -0.15013,-1.656929 -0.436596,-3.29538 -0.652044,-4.94434 -0.336891,-3.427859 -0.704696,-6.854682 -1.255698,-10.255861 -0.338451,-2.514026 -0.835062,-5.038068 -0.765049,-7.581261 0.05326,-1.23657 -0.02505,-2.723907 0.976227,-3.615223 1.516457,-0.656478 3.28299,-0.331515 4.890168,-0.464361 2.400947,-0.07477 4.798511,-0.234617 7.183361,-0.529843 2.505902,-0.296876 5.024759,-0.620261 7.553146,-0.564339 z" />
    <path
       style="fill:#000000;stroke-width:0.264999"
       id="path2"
       d="m 16.786234,27.665113 c 3.423355,0.02347 6.835992,-0.226499 10.248981,-0.45693 1.683543,-0.120028 3.36909,-0.203837 5.055658,-0.265401 0,0 -3.145557,-2.264282 -3.145557,-2.264282 v 0 c -1.664978,0.08615 -3.329359,0.184577 -4.990844,0.324449 -3.442895,0.254516 -6.890245,0.504898 -10.345255,0.353928 z" />
  </g>
</svg>
