<?xml version="1.0" encoding="UTF-8" standalone="no"?>
<!-- Created with Inkscape (http://www.inkscape.org/) -->

<svg
   width="50mm"
   height="50mm"
   viewBox="0 0 50 50"
   version="1.1"
   id="svg1"
   inkscape:version="1.4 (86a8ad7, 2024-10-11)"
   sodipodi:docname="u.svg"
   xmlns:inkscape="http://www.inkscape.org/namespaces/inkscape"
   xmlns:sodipodi="http://sodipodi.sourceforge.net/DTD/sodipodi-0.dtd"
   xmlns="http://www.w3.org/2000/svg"
   xmlns:svg="http://www.w3.org/2000/svg">
  <sodipodi:namedview
     id="namedview1"
     pagecolor="#ffffff"
     bordercolor="#000000"
     borderopacity="0.25"
     inkscape:showpageshadow="2"
     inkscape:pageopacity="0.0"
     inkscape:pagecheckerboard="0"
     inkscape:deskcolor="#d1d1d1"
     inkscape:document-units="mm"
     inkscape:zoom="0.68862935"
     inkscape:cx="396.43968"
     inkscape:cy="561.25984"
     inkscape:window-width="1920"
     inkscape:window-height="991"
     inkscape:window-x="-9"
     inkscape:window-y="-9"
     inkscape:window-maximized="1"
     inkscape:current-layer="layer1" />
  <defs
     id="defs1" />
  <g
     inkscape:label="Katman 1"
     inkscape:groupmode="layer"
     id="layer1">
    <path
       style="fill:#000000;stroke-width:0.264999"
       id="path1"
       d="m 12.385192,9.4688077 c -0.385904,3.9800523 -0.401631,7.9898393 -0.498986,11.9853993 -0.04981,3.688841 -0.188359,7.379484 -0.101251,11.068532 0.117316,1.977633 0.339128,4.081206 1.535615,5.738257 0.181175,0.250915 0.405707,0.467474 0.60856,0.701209 1.800207,1.528887 3.947218,3.143015 6.395818,3.124618 0.969213,-0.0073 1.317183,-0.138033 2.271694,-0.347514 2.643404,-1.314979 4.353149,-3.7718 5.421317,-6.466173 0.269629,-0.68012 0.469625,-1.385822 0.70444,-2.078731 1.333907,-4.633304 2.044816,-9.405147 2.533428,-14.191584 0.155924,-1.712757 0.261802,-3.429354 0.372896,-5.145399 0.03404,-0.525792 0.04089,-1.087018 0.129087,-1.611526 -1.176845,-0.478609 -2.29203,-1.15274 -3.530534,-1.435828 -0.2052,-0.0469 0.0085,0.420905 0.01109,0.631382 0.0034,0.272888 0.0055,0.545792 0.0068,0.818697 0.0048,1.010549 0.0052,2.021182 0.0067,3.031741 0.162478,3.099581 0.218552,6.203844 0.380694,9.303122 0.204559,3.316539 0.645231,6.608847 1.065072,9.902727 0.200617,1.751499 0.572508,3.468926 0.719648,5.22673 0.01908,0.341188 0.03818,0.682376 0.05727,1.023565 0,0 3.460639,1.742548 3.460639,1.742548 v 0 c -0.01352,-0.342469 -0.02706,-0.68494 -0.04059,-1.027409 -0.03171,-0.464555 -0.08094,-1.301922 -0.143163,-1.773137 -0.155101,-1.174498 -0.539345,-2.312244 -0.617831,-3.499585 -0.472879,-3.284427 -0.908672,-6.57257 -1.107332,-9.887516 -0.14633,-3.083434 -0.237974,-6.169836 -0.330292,-9.255263 0.0074,-1.274369 0.0105,-2.549223 0.03754,-3.82337 0.0044,-0.20612 0.177785,-0.489708 0.01662,-0.618276 -1.081378,-0.86265 -2.352646,-1.455759 -3.52897,-2.183639 0.127334,2.283109 -0.175612,4.580769 -0.266742,6.857613 -0.444757,4.763232 -1.140457,9.511485 -2.501744,14.10975 -0.23591,0.677111 -0.438305,1.366846 -0.707731,2.031331 -0.854112,2.106504 -2.151309,4.241085 -4.09627,5.51131 -0.378645,0.247288 -0.810444,0.401587 -1.215666,0.60238 -0.929357,0.166759 -1.284269,0.289237 -2.2215,0.235458 -0.321914,-0.01847 -0.643104,-0.06932 -0.956167,-0.146534 -0.260239,-0.06418 -0.976351,-0.427337 -0.755411,-0.275582 0.632841,0.434673 4.103032,2.540767 2.015875,1.114057 -0.215333,-0.213837 -0.452671,-0.407588 -0.645998,-0.641509 -1.285193,-1.555046 -1.537274,-3.636785 -1.677921,-5.574633 -0.131606,-3.699015 -0.02883,-7.403245 -0.01006,-11.103547 0.0751,-3.936868 0.09469,-7.904188 0.68114,-11.804723 z" />
  </g>
</svg>
